<svg width="264" height="45" viewBox="0 0 264 45" fill="none" xmlns="http://www.w3.org/2000/svg">
<path d="M30.0447 23.4733L30.7974 23.045L30.0501 22.6072L7.85262 9.60504L7.10535 9.16733L7.09991 10.0333L6.93841 35.758L6.93298 36.624L7.68568 36.1957L30.0447 23.4733Z" fill="white" stroke="black"/>
<path d="M55.83 18.36C55.83 19.42 55.58 20.42 55.08 21.36C54.58 22.3 53.78 23.07 52.68 23.67C51.58 24.25 50.17 24.54 48.45 24.54H44.67V33H41.25V12.15H48.45C50.05 12.15 51.4 12.43 52.5 12.99C53.62 13.53 54.45 14.27 54.99 15.21C55.55 16.15 55.83 17.2 55.83 18.36ZM48.45 21.75C49.75 21.75 50.72 21.46 51.36 20.88C52 20.28 52.32 19.44 52.32 18.36C52.32 16.08 51.03 14.94 48.45 14.94H44.67V21.75H48.45ZM69.9218 33L65.1218 24.66H62.5118V33H59.0918V12.15H66.2918C67.8918 12.15 69.2418 12.43 70.3418 12.99C71.4618 13.55 72.2918 14.3 72.8318 15.24C73.3918 16.18 73.6718 17.23 73.6718 18.39C73.6718 19.75 73.2718 20.99 72.4718 22.11C71.6918 23.21 70.4818 23.96 68.8418 24.36L74.0018 33H69.9218ZM62.5118 21.93H66.2918C67.5718 21.93 68.5318 21.61 69.1718 20.97C69.8318 20.33 70.1618 19.47 70.1618 18.39C70.1618 17.31 69.8418 16.47 69.2018 15.87C68.5618 15.25 67.5918 14.94 66.2918 14.94H62.5118V21.93ZM87.5569 33.21C85.6169 33.21 83.8269 32.76 82.1869 31.86C80.5669 30.94 79.2769 29.67 78.3169 28.05C77.3769 26.41 76.9069 24.57 76.9069 22.53C76.9069 20.49 77.3769 18.66 78.3169 17.04C79.2769 15.42 80.5669 14.16 82.1869 13.26C83.8269 12.34 85.6169 11.88 87.5569 11.88C89.5169 11.88 91.3069 12.34 92.9269 13.26C94.5669 14.16 95.8569 15.42 96.7969 17.04C97.7369 18.66 98.2069 20.49 98.2069 22.53C98.2069 24.57 97.7369 26.41 96.7969 28.05C95.8569 29.67 94.5669 30.94 92.9269 31.86C91.3069 32.76 89.5169 33.21 87.5569 33.21ZM87.5569 30.24C88.9369 30.24 90.1669 29.93 91.2469 29.31C92.3269 28.67 93.1669 27.77 93.7669 26.61C94.3869 25.43 94.6969 24.07 94.6969 22.53C94.6969 20.99 94.3869 19.64 93.7669 18.48C93.1669 17.32 92.3269 16.43 91.2469 15.81C90.1669 15.19 88.9369 14.88 87.5569 14.88C86.1769 14.88 84.9469 15.19 83.8669 15.81C82.7869 16.43 81.9369 17.32 81.3169 18.48C80.7169 19.64 80.4169 20.99 80.4169 22.53C80.4169 24.07 80.7169 25.43 81.3169 26.61C81.9369 27.77 82.7869 28.67 83.8669 29.31C84.9469 29.93 86.1769 30.24 87.5569 30.24ZM123.532 12.15V33H120.112V18.72L113.752 33H111.382L104.992 18.72V33H101.572V12.15H105.262L112.582 28.5L119.872 12.15H123.532ZM142.607 18.36C142.607 19.42 142.357 20.42 141.857 21.36C141.357 22.3 140.557 23.07 139.457 23.67C138.357 24.25 136.947 24.54 135.227 24.54H131.447V33H128.027V12.15H135.227C136.827 12.15 138.177 12.43 139.277 12.99C140.397 13.53 141.227 14.27 141.767 15.21C142.327 16.15 142.607 17.2 142.607 18.36ZM135.227 21.75C136.527 21.75 137.497 21.46 138.137 20.88C138.777 20.28 139.097 19.44 139.097 18.36C139.097 16.08 137.807 14.94 135.227 14.94H131.447V21.75H135.227ZM159.339 12.15V14.94H153.789V33H150.369V14.94H144.789V12.15H159.339ZM166.223 14.91V21.03H173.423V23.82H166.223V30.21H174.323V33H162.803V12.12H174.323V14.91H166.223ZM189.365 33L184.565 24.66H181.955V33H178.535V12.15H185.735C187.335 12.15 188.685 12.43 189.785 12.99C190.905 13.55 191.735 14.3 192.275 15.24C192.835 16.18 193.115 17.23 193.115 18.39C193.115 19.75 192.715 20.99 191.915 22.11C191.135 23.21 189.925 23.96 188.285 24.36L193.445 33H189.365ZM181.955 21.93H185.735C187.015 21.93 187.975 21.61 188.615 20.97C189.275 20.33 189.605 19.47 189.605 18.39C189.605 17.31 189.285 16.47 188.645 15.87C188.005 15.25 187.035 14.94 185.735 14.94H181.955V21.93Z" fill="black"/>
<path d="M55.08 21.36L54.6386 21.1252L54.6386 21.1252L55.08 21.36ZM52.68 23.67L52.9132 24.1123L52.9194 24.1089L52.68 23.67ZM44.67 24.54V24.04H44.17V24.54H44.67ZM44.67 33V33.5H45.17V33H44.67ZM41.25 33H40.75V33.5H41.25V33ZM41.25 12.15V11.65H40.75V12.15H41.25ZM52.5 12.99L52.2731 13.4357L52.2829 13.4404L52.5 12.99ZM54.99 15.21L54.5564 15.4591L54.5605 15.4659L54.99 15.21ZM51.36 20.88L51.6958 21.2505L51.702 21.2448L51.36 20.88ZM44.67 14.94V14.44H44.17V14.94H44.67ZM44.67 21.75H44.17V22.25H44.67V21.75ZM55.33 18.36C55.33 19.3377 55.1003 20.2571 54.6386 21.1252L55.5214 21.5948C56.0597 20.5828 56.33 19.5023 56.33 18.36H55.33ZM54.6386 21.1252C54.1921 21.9645 53.4702 22.6694 52.4406 23.2311L52.9194 24.1089C54.0898 23.4706 54.9679 22.6355 55.5214 21.5948L54.6386 21.1252ZM52.4468 23.2277C51.4409 23.7581 50.1182 24.04 48.45 24.04V25.04C50.2218 25.04 51.7191 24.7419 52.9132 24.1123L52.4468 23.2277ZM48.45 24.04H44.67V25.04H48.45V24.04ZM44.17 24.54V33H45.17V24.54H44.17ZM44.67 32.5H41.25V33.5H44.67V32.5ZM41.75 33V12.15H40.75V33H41.75ZM41.25 12.65H48.45V11.65H41.25V12.65ZM48.45 12.65C49.9937 12.65 51.2611 12.9204 52.2732 13.4356L52.7268 12.5444C51.5389 11.9396 50.1063 11.65 48.45 11.65V12.65ZM52.2829 13.4404C53.3258 13.9433 54.0738 14.6188 54.5564 15.4591L55.4236 14.9609C54.8262 13.9212 53.9142 13.1167 52.7172 12.5396L52.2829 13.4404ZM54.5605 15.4659C55.0715 16.3238 55.33 17.2844 55.33 18.36H56.33C56.33 17.1156 56.0285 15.9762 55.4196 14.9541L54.5605 15.4659ZM48.45 22.25C49.8131 22.25 50.9269 21.9473 51.6958 21.2505L51.0242 20.5095C50.5131 20.9727 49.6869 21.25 48.45 21.25V22.25ZM51.702 21.2448C52.4653 20.5291 52.82 19.5439 52.82 18.36H51.82C51.82 19.3361 51.5347 20.0309 51.018 20.5152L51.702 21.2448ZM52.82 18.36C52.82 17.1258 52.468 16.1135 51.6836 15.4203C50.911 14.7376 49.8029 14.44 48.45 14.44V15.44C49.6771 15.44 50.504 15.7124 51.0214 16.1697C51.527 16.6165 51.82 17.3142 51.82 18.36H52.82ZM48.45 14.44H44.67V15.44H48.45V14.44ZM44.17 14.94V21.75H45.17V14.94H44.17ZM44.67 22.25H48.45V21.25H44.67V22.25ZM69.9218 33L69.4884 33.2494L69.6327 33.5H69.9218V33ZM65.1218 24.66L65.5551 24.4106L65.4109 24.16H65.1218V24.66ZM62.5118 24.66V24.16H62.0118V24.66H62.5118ZM62.5118 33V33.5H63.0118V33H62.5118ZM59.0918 33H58.5918V33.5H59.0918V33ZM59.0918 12.15V11.65H58.5918V12.15H59.0918ZM70.3418 12.99L70.1149 13.4356L70.1182 13.4372L70.3418 12.99ZM72.8318 15.24L72.3982 15.4891L72.4022 15.4959L72.8318 15.24ZM72.4718 22.11L72.0649 21.8194L72.0639 21.8208L72.4718 22.11ZM68.8418 24.36L68.7233 23.8742L68.0652 24.0348L68.4125 24.6164L68.8418 24.36ZM74.0018 33V33.5H74.8828L74.4311 32.7436L74.0018 33ZM62.5118 21.93H62.0118V22.43H62.5118V21.93ZM69.1718 20.97L68.8237 20.611L68.8182 20.6164L69.1718 20.97ZM69.2018 15.87L68.8539 16.2292L68.8598 16.2348L69.2018 15.87ZM62.5118 14.94V14.44H62.0118V14.94H62.5118ZM70.3551 32.7506L65.5551 24.4106L64.6884 24.9094L69.4884 33.2494L70.3551 32.7506ZM65.1218 24.16H62.5118V25.16H65.1218V24.16ZM62.0118 24.66V33H63.0118V24.66H62.0118ZM62.5118 32.5H59.0918V33.5H62.5118V32.5ZM59.5918 33V12.15H58.5918V33H59.5918ZM59.0918 12.65H66.2918V11.65H59.0918V12.65ZM66.2918 12.65C67.8355 12.65 69.1029 12.9204 70.115 13.4356L70.5686 12.5444C69.3807 11.9396 67.9481 11.65 66.2918 11.65V12.65ZM70.1182 13.4372C71.1642 13.9602 71.9145 14.6469 72.3982 15.4891L73.2654 14.9909C72.6691 13.9531 71.7593 13.1398 70.5654 12.5428L70.1182 13.4372ZM72.4022 15.4959C72.9133 16.3538 73.1718 17.3144 73.1718 18.39H74.1718C74.1718 17.1456 73.8703 16.0062 73.2613 14.9841L72.4022 15.4959ZM73.1718 18.39C73.1718 19.6444 72.8051 20.7831 72.0649 21.8194L72.8787 22.4006C73.7385 21.1969 74.1718 19.8555 74.1718 18.39H73.1718ZM72.0639 21.8208C71.3698 22.7997 70.2768 23.4953 68.7233 23.8742L68.9603 24.8458C70.6868 24.4247 72.0138 23.6203 72.8797 22.3992L72.0639 21.8208ZM68.4125 24.6164L73.5725 33.2564L74.4311 32.7436L69.2711 24.1036L68.4125 24.6164ZM74.0018 32.5H69.9218V33.5H74.0018V32.5ZM62.5118 22.43H66.2918V21.43H62.5118V22.43ZM66.2918 22.43C67.6489 22.43 68.7585 22.0904 69.5254 21.3236L68.8182 20.6164C68.3051 21.1296 67.4947 21.43 66.2918 21.43V22.43ZM69.5199 21.3289C70.2939 20.5783 70.6618 19.5797 70.6618 18.39H69.6618C69.6618 19.3603 69.3697 20.0817 68.8237 20.611L69.5199 21.3289ZM70.6618 18.39C70.6618 17.2061 70.3071 16.2209 69.5438 15.5052L68.8598 16.2348C69.3765 16.7191 69.6618 17.4139 69.6618 18.39H70.6618ZM69.5497 15.5109C68.7811 14.7663 67.6624 14.44 66.2918 14.44V15.44C67.5212 15.44 68.3425 15.7337 68.8539 16.2291L69.5497 15.5109ZM66.2918 14.44H62.5118V15.44H66.2918V14.44ZM62.0118 14.94V21.93H63.0118V14.94H62.0118ZM82.1869 31.86L81.9399 32.2948L81.9463 32.2983L82.1869 31.86ZM78.3169 28.05L77.883 28.2987L77.8867 28.3049L78.3169 28.05ZM78.3169 17.04L77.8867 16.7851L77.8844 16.7891L78.3169 17.04ZM82.1869 13.26L82.4297 13.6971L82.4315 13.6961L82.1869 13.26ZM92.9269 13.26L92.6799 13.6948L92.6863 13.6983L92.9269 13.26ZM96.7969 17.04L96.3644 17.2909L96.3644 17.2909L96.7969 17.04ZM96.7969 28.05L97.2294 28.3009L97.2307 28.2986L96.7969 28.05ZM92.9269 31.86L93.1697 32.2971L93.1715 32.2961L92.9269 31.86ZM91.2469 29.31L91.4958 29.7437L91.5018 29.7401L91.2469 29.31ZM93.7669 26.61L93.3242 26.3774L93.3228 26.3803L93.7669 26.61ZM93.7669 18.48L93.3227 18.7097L93.3259 18.7157L93.7669 18.48ZM91.2469 15.81L90.9979 16.2436L90.9979 16.2436L91.2469 15.81ZM83.8669 15.81L84.1158 16.2436L84.1158 16.2436L83.8669 15.81ZM81.3169 18.48L80.8759 18.2443L80.8728 18.2503L81.3169 18.48ZM81.3169 26.61L80.8711 26.8367L80.8759 26.8457L81.3169 26.61ZM83.8669 29.31L83.612 29.7402L83.6179 29.7436L83.8669 29.31ZM87.5569 32.71C85.6977 32.71 83.9909 32.2797 82.4274 31.4217L81.9463 32.2983C83.6628 33.2403 85.536 33.71 87.5569 33.71V32.71ZM82.4338 31.4252C80.8903 30.5487 79.6631 29.3411 78.747 27.7951L77.8867 28.3049C78.8906 29.9989 80.2434 31.3313 81.94 32.2948L82.4338 31.4252ZM78.7507 27.8014C77.8575 26.243 77.4069 24.4899 77.4069 22.53H76.4069C76.4069 24.6501 76.8963 26.577 77.8831 28.2986L78.7507 27.8014ZM77.4069 22.53C77.4069 20.57 77.8575 18.828 78.7493 17.2909L77.8844 16.7891C76.8963 18.492 76.4069 20.41 76.4069 22.53H77.4069ZM78.747 17.2949C79.6626 15.7499 80.8885 14.5533 82.4297 13.6971L81.9441 12.8229C80.2453 13.7667 78.8912 15.0901 77.8867 16.7851L78.747 17.2949ZM82.4315 13.6961C83.9944 12.8193 85.6997 12.38 87.5569 12.38V11.38C85.534 11.38 83.6594 11.8606 81.9422 12.8239L82.4315 13.6961ZM87.5569 12.38C89.435 12.38 91.1392 12.8198 92.68 13.6948L93.1738 12.8252C91.4746 11.8602 89.5988 11.38 87.5569 11.38V12.38ZM92.6863 13.6983C94.2464 14.5545 95.4701 15.7496 96.3644 17.2909L97.2293 16.7891C96.2437 15.0904 94.8874 13.7655 93.1674 12.8217L92.6863 13.6983ZM96.3644 17.2909C97.2563 18.828 97.7069 20.57 97.7069 22.53H98.7069C98.7069 20.41 98.2175 18.492 97.2293 16.7891L96.3644 17.2909ZM97.7069 22.53C97.7069 24.4899 97.2563 26.243 96.3631 27.8014L97.2307 28.2986C98.2175 26.577 98.7069 24.6501 98.7069 22.53H97.7069ZM96.3644 27.7991C95.4695 29.3413 94.2445 30.5475 92.6823 31.4239L93.1715 32.2961C94.8892 31.3325 96.2442 29.9987 97.2293 28.3009L96.3644 27.7991ZM92.6841 31.4229C91.1426 32.2793 89.437 32.71 87.5569 32.71V33.71C89.5968 33.71 91.4711 33.2407 93.1697 32.2971L92.6841 31.4229ZM87.5569 30.74C89.0145 30.74 90.3321 30.4117 91.4958 29.7436L90.9979 28.8764C90.0017 29.4483 88.8592 29.74 87.5569 29.74V30.74ZM91.5018 29.7401C92.6657 29.0504 93.5698 28.0794 94.211 26.8397L93.3228 26.3803C92.764 27.4606 91.988 28.2896 90.992 28.8799L91.5018 29.7401ZM94.2095 26.8426C94.8727 25.5804 95.1969 24.1384 95.1969 22.53H94.1969C94.1969 24.0016 93.9011 25.2796 93.3243 26.3774L94.2095 26.8426ZM95.1969 22.53C95.1969 20.9219 94.8727 19.4883 94.2078 18.2443L93.3259 18.7157C93.901 19.7917 94.1969 21.0581 94.1969 22.53H95.1969ZM94.211 18.2503C93.5691 17.0094 92.6633 16.0466 91.4958 15.3764L90.9979 16.2436C91.9905 16.8134 92.7646 17.6306 93.3228 18.7097L94.211 18.2503ZM91.4958 15.3764C90.3321 14.7083 89.0145 14.38 87.5569 14.38V15.38C88.8592 15.38 90.0017 15.6717 90.9979 16.2436L91.4958 15.3764ZM87.5569 14.38C86.0992 14.38 84.7817 14.7083 83.6179 15.3764L84.1158 16.2436C85.1121 15.6717 86.2545 15.38 87.5569 15.38V14.38ZM83.6179 15.3764C82.452 16.0457 81.5375 17.0065 80.8759 18.2443L81.7578 18.7157C82.3363 17.6335 83.1218 16.8143 84.1158 16.2436L83.6179 15.3764ZM80.8728 18.2503C80.23 19.493 79.9169 20.9244 79.9169 22.53H80.9169C80.9169 21.0556 81.2038 19.787 81.761 18.7097L80.8728 18.2503ZM79.9169 22.53C79.9169 24.1359 80.2301 25.5758 80.8712 26.8366L81.7626 26.3834C81.2037 25.2842 80.9169 24.0041 80.9169 22.53H79.9169ZM80.8759 26.8457C81.5368 28.0823 82.4495 29.0513 83.612 29.7401L84.1218 28.8799C83.1242 28.2887 82.3369 27.4577 81.7578 26.3743L80.8759 26.8457ZM83.6179 29.7436C84.7817 30.4117 86.0992 30.74 87.5569 30.74V29.74C86.2545 29.74 85.1121 29.4483 84.1158 28.8764L83.6179 29.7436ZM123.532 12.15H124.032V11.65H123.532V12.15ZM123.532 33V33.5H124.032V33H123.532ZM120.112 33H119.612V33.5H120.112V33ZM120.112 18.72H120.612L119.656 18.5166L120.112 18.72ZM113.752 33V33.5H114.077L114.209 33.2034L113.752 33ZM111.382 33L110.926 33.2042L111.058 33.5H111.382V33ZM104.992 18.72L105.449 18.5158L104.492 18.72H104.992ZM104.992 33V33.5H105.492V33H104.992ZM101.572 33H101.072V33.5H101.572V33ZM101.572 12.15V11.65H101.072V12.15H101.572ZM105.262 12.15L105.719 11.9457L105.586 11.65H105.262V12.15ZM112.582 28.5L112.126 28.7043L112.583 29.7257L113.039 28.7036L112.582 28.5ZM119.872 12.15V11.65H119.548L119.416 11.9464L119.872 12.15ZM123.032 12.15V33H124.032V12.15H123.032ZM123.532 32.5H120.112V33.5H123.532V32.5ZM120.612 33V18.72H119.612V33H120.612ZM119.656 18.5166L113.296 32.7966L114.209 33.2034L120.569 18.9234L119.656 18.5166ZM113.752 32.5H111.382V33.5H113.752V32.5ZM111.839 32.7958L105.449 18.5158L104.536 18.9242L110.926 33.2042L111.839 32.7958ZM104.492 18.72V33H105.492V18.72H104.492ZM104.992 32.5H101.572V33.5H104.992V32.5ZM102.072 33V12.15H101.072V33H102.072ZM101.572 12.65H105.262V11.65H101.572V12.65ZM104.806 12.3543L112.126 28.7043L113.039 28.2957L105.719 11.9457L104.806 12.3543ZM113.039 28.7036L120.329 12.3536L119.416 11.9464L112.126 28.2964L113.039 28.7036ZM119.872 12.65H123.532V11.65H119.872V12.65ZM141.857 21.36L141.416 21.1252L141.416 21.1252L141.857 21.36ZM139.457 23.67L139.691 24.1123L139.697 24.1089L139.457 23.67ZM131.447 24.54V24.04H130.947V24.54H131.447ZM131.447 33V33.5H131.947V33H131.447ZM128.027 33H127.527V33.5H128.027V33ZM128.027 12.15V11.65H127.527V12.15H128.027ZM139.277 12.99L139.05 13.4357L139.06 13.4404L139.277 12.99ZM141.767 15.21L141.334 15.4591L141.338 15.4659L141.767 15.21ZM138.137 20.88L138.473 21.2505L138.479 21.2448L138.137 20.88ZM131.447 14.94V14.44H130.947V14.94H131.447ZM131.447 21.75H130.947V22.25H131.447V21.75ZM142.107 18.36C142.107 19.3377 141.878 20.2571 141.416 21.1252L142.299 21.5948C142.837 20.5828 143.107 19.5023 143.107 18.36H142.107ZM141.416 21.1252C140.969 21.9645 140.248 22.6694 139.218 23.2311L139.697 24.1089C140.867 23.4706 141.745 22.6355 142.299 21.5948L141.416 21.1252ZM139.224 23.2277C138.218 23.7581 136.896 24.04 135.227 24.04V25.04C136.999 25.04 138.496 24.7419 139.691 24.1123L139.224 23.2277ZM135.227 24.04H131.447V25.04H135.227V24.04ZM130.947 24.54V33H131.947V24.54H130.947ZM131.447 32.5H128.027V33.5H131.447V32.5ZM128.527 33V12.15H127.527V33H128.527ZM128.027 12.65H135.227V11.65H128.027V12.65ZM135.227 12.65C136.771 12.65 138.038 12.9204 139.051 13.4356L139.504 12.5444C138.316 11.9396 136.884 11.65 135.227 11.65V12.65ZM139.06 13.4404C140.103 13.9433 140.851 14.6188 141.334 15.4591L142.201 14.9609C141.604 13.9212 140.692 13.1167 139.494 12.5396L139.06 13.4404ZM141.338 15.4659C141.849 16.3238 142.107 17.2844 142.107 18.36H143.107C143.107 17.1156 142.806 15.9762 142.197 14.9541L141.338 15.4659ZM135.227 22.25C136.59 22.25 137.704 21.9473 138.473 21.2505L137.802 20.5095C137.29 20.9727 136.464 21.25 135.227 21.25V22.25ZM138.479 21.2448C139.243 20.5291 139.597 19.5439 139.597 18.36H138.597C138.597 19.3361 138.312 20.0309 137.795 20.5152L138.479 21.2448ZM139.597 18.36C139.597 17.1258 139.245 16.1135 138.461 15.4203C137.688 14.7376 136.58 14.44 135.227 14.44V15.44C136.454 15.44 137.281 15.7124 137.799 16.1697C138.304 16.6165 138.597 17.3142 138.597 18.36H139.597ZM135.227 14.44H131.447V15.44H135.227V14.44ZM130.947 14.94V21.75H131.947V14.94H130.947ZM131.447 22.25H135.227V21.25H131.447V22.25ZM159.339 12.15H159.839V11.65H159.339V12.15ZM159.339 14.94V15.44H159.839V14.94H159.339ZM153.789 14.94V14.44H153.289V14.94H153.789ZM153.789 33V33.5H154.289V33H153.789ZM150.369 33H149.869V33.5H150.369V33ZM150.369 14.94H150.869V14.44H150.369V14.94ZM144.789 14.94H144.289V15.44H144.789V14.94ZM144.789 12.15V11.65H144.289V12.15H144.789ZM158.839 12.15V14.94H159.839V12.15H158.839ZM159.339 14.44H153.789V15.44H159.339V14.44ZM153.289 14.94V33H154.289V14.94H153.289ZM153.789 32.5H150.369V33.5H153.789V32.5ZM150.869 33V14.94H149.869V33H150.869ZM150.369 14.44H144.789V15.44H150.369V14.44ZM145.289 14.94V12.15H144.289V14.94H145.289ZM144.789 12.65H159.339V11.65H144.789V12.65ZM166.223 14.91V14.41H165.723V14.91H166.223ZM166.223 21.03H165.723V21.53H166.223V21.03ZM173.423 21.03H173.923V20.53H173.423V21.03ZM173.423 23.82V24.32H173.923V23.82H173.423ZM166.223 23.82V23.32H165.723V23.82H166.223ZM166.223 30.21H165.723V30.71H166.223V30.21ZM174.323 30.21H174.823V29.71H174.323V30.21ZM174.323 33V33.5H174.823V33H174.323ZM162.803 33H162.303V33.5H162.803V33ZM162.803 12.12V11.62H162.303V12.12H162.803ZM174.323 12.12H174.823V11.62H174.323V12.12ZM174.323 14.91V15.41H174.823V14.91H174.323ZM165.723 14.91V21.03H166.723V14.91H165.723ZM166.223 21.53H173.423V20.53H166.223V21.53ZM172.923 21.03V23.82H173.923V21.03H172.923ZM173.423 23.32H166.223V24.32H173.423V23.32ZM165.723 23.82V30.21H166.723V23.82H165.723ZM166.223 30.71H174.323V29.71H166.223V30.71ZM173.823 30.21V33H174.823V30.21H173.823ZM174.323 32.5H162.803V33.5H174.323V32.5ZM163.303 33V12.12H162.303V33H163.303ZM162.803 12.62H174.323V11.62H162.803V12.62ZM173.823 12.12V14.91H174.823V12.12H173.823ZM174.323 14.41H166.223V15.41H174.323V14.41ZM189.365 33L188.932 33.2494L189.076 33.5H189.365V33ZM184.565 24.66L184.999 24.4106L184.854 24.16H184.565V24.66ZM181.955 24.66V24.16H181.455V24.66H181.955ZM181.955 33V33.5H182.455V33H181.955ZM178.535 33H178.035V33.5H178.535V33ZM178.535 12.15V11.65H178.035V12.15H178.535ZM189.785 12.99L189.558 13.4356L189.562 13.4372L189.785 12.99ZM192.275 15.24L191.842 15.4891L191.846 15.4959L192.275 15.24ZM191.915 22.11L191.508 21.8194L191.507 21.8208L191.915 22.11ZM188.285 24.36L188.167 23.8742L187.509 24.0348L187.856 24.6164L188.285 24.36ZM193.445 33V33.5H194.326L193.874 32.7436L193.445 33ZM181.955 21.93H181.455V22.43H181.955V21.93ZM188.615 20.97L188.267 20.611L188.262 20.6164L188.615 20.97ZM188.645 15.87L188.297 16.2292L188.303 16.2348L188.645 15.87ZM181.955 14.94V14.44H181.455V14.94H181.955ZM189.799 32.7506L184.999 24.4106L184.132 24.9094L188.932 33.2494L189.799 32.7506ZM184.565 24.16H181.955V25.16H184.565V24.16ZM181.455 24.66V33H182.455V24.66H181.455ZM181.955 32.5H178.535V33.5H181.955V32.5ZM179.035 33V12.15H178.035V33H179.035ZM178.535 12.65H185.735V11.65H178.535V12.65ZM185.735 12.65C187.279 12.65 188.546 12.9204 189.558 13.4356L190.012 12.5444C188.824 11.9396 187.391 11.65 185.735 11.65V12.65ZM189.562 13.4372C190.608 13.9602 191.358 14.6469 191.842 15.4891L192.709 14.9909C192.112 13.9531 191.203 13.1398 190.009 12.5428L189.562 13.4372ZM191.846 15.4959C192.357 16.3538 192.615 17.3144 192.615 18.39H193.615C193.615 17.1456 193.314 16.0062 192.705 14.9841L191.846 15.4959ZM192.615 18.39C192.615 19.6444 192.249 20.7831 191.508 21.8194L192.322 22.4006C193.182 21.1969 193.615 19.8555 193.615 18.39H192.615ZM191.507 21.8208C190.813 22.7997 189.72 23.4953 188.167 23.8742L188.404 24.8458C190.13 24.4247 191.457 23.6203 192.323 22.3992L191.507 21.8208ZM187.856 24.6164L193.016 33.2564L193.874 32.7436L188.714 24.1036L187.856 24.6164ZM193.445 32.5H189.365V33.5H193.445V32.5ZM181.955 22.43H185.735V21.43H181.955V22.43ZM185.735 22.43C187.092 22.43 188.202 22.0904 188.969 21.3236L188.262 20.6164C187.748 21.1296 186.938 21.43 185.735 21.43V22.43ZM188.963 21.3289C189.737 20.5783 190.105 19.5797 190.105 18.39H189.105C189.105 19.3603 188.813 20.0817 188.267 20.611L188.963 21.3289ZM190.105 18.39C190.105 17.2061 189.75 16.2209 188.987 15.5052L188.303 16.2348C188.82 16.7191 189.105 17.4139 189.105 18.39H190.105ZM188.993 15.5109C188.224 14.7663 187.106 14.44 185.735 14.44V15.44C186.965 15.44 187.786 15.7337 188.297 16.2291L188.993 15.5109ZM185.735 14.44H181.955V15.44H185.735V14.44ZM181.455 14.94V21.93H182.455V14.94H181.455ZM219.113 21.36L218.672 21.1252L218.672 21.1252L219.113 21.36ZM216.713 23.67L216.946 24.1123L216.953 24.1089L216.713 23.67ZM208.703 24.54V24.04H208.203V24.54H208.703ZM208.703 33V33.5H209.203V33H208.703ZM205.283 33H204.783V33.5H205.283V33ZM205.283 12.15V11.65H204.783V12.15H205.283ZM216.533 12.99L216.306 13.4357L216.316 13.4404L216.533 12.99ZM219.023 15.21L218.59 15.4591L218.594 15.4659L219.023 15.21ZM215.393 20.88L215.729 21.2505L215.735 21.2448L215.393 20.88ZM208.703 14.94V14.44H208.203V14.94H208.703ZM208.703 21.75H208.203V22.25H208.703V21.75ZM219.363 18.36C219.363 19.3377 219.133 20.2571 218.672 21.1252L219.555 21.5948C220.093 20.5828 220.363 19.5023 220.363 18.36H219.363ZM218.672 21.1252C218.225 21.9645 217.503 22.6694 216.474 23.2311L216.953 24.1089C218.123 23.4706 219.001 22.6355 219.555 21.5948L218.672 21.1252ZM216.48 23.2277C215.474 23.7581 214.151 24.04 212.483 24.04V25.04C214.255 25.04 215.752 24.7419 216.946 24.1123L216.48 23.2277ZM212.483 24.04H208.703V25.04H212.483V24.04ZM208.203 24.54V33H209.203V24.54H208.203ZM208.703 32.5H205.283V33.5H208.703V32.5ZM205.783 33V12.15H204.783V33H205.783ZM205.283 12.65H212.483V11.65H205.283V12.65ZM212.483 12.65C214.027 12.65 215.294 12.9204 216.306 13.4356L216.76 12.5444C215.572 11.9396 214.139 11.65 212.483 11.65V12.65ZM216.316 13.4404C217.359 13.9433 218.107 14.6188 218.59 15.4591L219.457 14.9609C218.859 13.9212 217.947 13.1167 216.75 12.5396L216.316 13.4404ZM218.594 15.4659C219.105 16.3238 219.363 17.2844 219.363 18.36H220.363C220.363 17.1156 220.062 15.9762 219.453 14.9541L218.594 15.4659ZM212.483 22.25C213.846 22.25 214.96 21.9473 215.729 21.2505L215.057 20.5095C214.546 20.9727 213.72 21.25 212.483 21.25V22.25ZM215.735 21.2448C216.499 20.5291 216.853 19.5439 216.853 18.36H215.853C215.853 19.3361 215.568 20.0309 215.051 20.5152L215.735 21.2448ZM216.853 18.36C216.853 17.1258 216.501 16.1135 215.717 15.4203C214.944 14.7376 213.836 14.44 212.483 14.44V15.44C213.71 15.44 214.537 15.7124 215.055 16.1697C215.56 16.6165 215.853 17.3142 215.853 18.36H216.853ZM212.483 14.44H208.703V15.44H212.483V14.44ZM208.203 14.94V21.75H209.203V14.94H208.203ZM208.703 22.25H212.483V21.25H208.703V22.25ZM233.955 33L233.522 33.2494L233.666 33.5H233.955V33ZM229.155 24.66L229.588 24.4106L229.444 24.16H229.155V24.66ZM226.545 24.66V24.16H226.045V24.66H226.545ZM226.545 33V33.5H227.045V33H226.545ZM223.125 33H222.625V33.5H223.125V33ZM223.125 12.15V11.65H222.625V12.15H223.125ZM234.375 12.99L234.148 13.4356L234.151 13.4372L234.375 12.99ZM236.865 15.24L236.431 15.4891L236.435 15.4959L236.865 15.24ZM236.505 22.11L236.098 21.8194L236.097 21.8208L236.505 22.11ZM232.875 24.36L232.757 23.8742L232.098 24.0348L232.446 24.6164L232.875 24.36ZM238.035 33V33.5H238.916L238.464 32.7436L238.035 33ZM226.545 21.93H226.045V22.43H226.545V21.93ZM233.205 20.97L232.857 20.611L232.851 20.6164L233.205 20.97ZM233.235 15.87L232.887 16.2292L232.893 16.2348L233.235 15.87ZM226.545 14.94V14.44H226.045V14.94H226.545ZM234.388 32.7506L229.588 24.4106L228.722 24.9094L233.522 33.2494L234.388 32.7506ZM229.155 24.16H226.545V25.16H229.155V24.16ZM226.045 24.66V33H227.045V24.66H226.045ZM226.545 32.5H223.125V33.5H226.545V32.5ZM223.625 33V12.15H222.625V33H223.625ZM223.125 12.65H230.325V11.65H223.125V12.65ZM230.325 12.65C231.869 12.65 233.136 12.9204 234.148 13.4356L234.602 12.5444C233.414 11.9396 231.981 11.65 230.325 11.65V12.65ZM234.151 13.4372C235.197 13.9602 235.948 14.6469 236.431 15.4891L237.299 14.9909C236.702 13.9531 235.793 13.1398 234.599 12.5428L234.151 13.4372ZM236.435 15.4959C236.947 16.3538 237.205 17.3144 237.205 18.39H238.205C238.205 17.1456 237.903 16.0062 237.295 14.9841L236.435 15.4959ZM237.205 18.39C237.205 19.6444 236.838 20.7831 236.098 21.8194L236.912 22.4006C237.772 21.1969 238.205 19.8555 238.205 18.39H237.205ZM236.097 21.8208C235.403 22.7997 234.31 23.4953 232.757 23.8742L232.993 24.8458C234.72 24.4247 236.047 23.6203 236.913 22.3992L236.097 21.8208ZM232.446 24.6164L237.606 33.2564L238.464 32.7436L233.304 24.1036L232.446 24.6164ZM238.035 32.5H233.955V33.5H238.035V32.5ZM226.545 22.43H230.325V21.43H226.545V22.43ZM230.325 22.43C231.682 22.43 232.792 22.0904 233.559 21.3236L232.851 20.6164C232.338 21.1296 231.528 21.43 230.325 21.43V22.43ZM233.553 21.3289C234.327 20.5783 234.695 19.5797 234.695 18.39H233.695C233.695 19.3603 233.403 20.0817 232.857 20.611L233.553 21.3289ZM234.695 18.39C234.695 17.2061 234.34 16.2209 233.577 15.5052L232.893 16.2348C233.41 16.7191 233.695 17.4139 233.695 18.39H234.695ZM233.583 15.5109C232.814 14.7663 231.696 14.44 230.325 14.44V15.44C231.554 15.44 232.376 15.7337 232.887 16.2291L233.583 15.5109ZM230.325 14.44H226.545V15.44H230.325V14.44ZM226.045 14.94V21.93H227.045V14.94H226.045ZM246.22 31.86L245.973 32.2948L245.98 32.2983L246.22 31.86ZM242.35 28.05L241.916 28.2987L241.92 28.3049L242.35 28.05ZM242.35 17.04L241.92 16.7851L241.918 16.7891L242.35 17.04ZM246.22 13.26L246.463 13.6971L246.465 13.6961L246.22 13.26ZM256.96 13.26L256.713 13.6948L256.72 13.6983L256.96 13.26ZM260.83 17.04L260.398 17.2909L260.398 17.2909L260.83 17.04ZM260.83 28.05L261.263 28.3009L261.264 28.2986L260.83 28.05ZM256.96 31.86L257.203 32.2971L257.205 32.2961L256.96 31.86ZM255.28 29.31L255.529 29.7437L255.535 29.7401L255.28 29.31ZM257.8 26.61L257.357 26.3774L257.356 26.3803L257.8 26.61ZM257.8 18.48L257.356 18.7097L257.359 18.7157L257.8 18.48ZM255.28 15.81L255.031 16.2436L255.031 16.2436L255.28 15.81ZM247.9 15.81L248.149 16.2436L248.149 16.2436L247.9 15.81ZM245.35 18.48L244.909 18.2443L244.906 18.2503L245.35 18.48ZM245.35 26.61L244.904 26.8367L244.909 26.8457L245.35 26.61ZM247.9 29.31L247.645 29.7402L247.651 29.7436L247.9 29.31ZM251.59 32.71C249.731 32.71 248.024 32.2797 246.461 31.4217L245.98 32.2983C247.696 33.2403 249.569 33.71 251.59 33.71V32.71ZM246.467 31.4252C244.924 30.5487 243.696 29.3411 242.78 27.7951L241.92 28.3049C242.924 29.9989 244.277 31.3313 245.973 32.2948L246.467 31.4252ZM242.784 27.8014C241.891 26.243 241.44 24.4899 241.44 22.53H240.44C240.44 24.6501 240.929 26.577 241.916 28.2986L242.784 27.8014ZM241.44 22.53C241.44 20.57 241.891 18.828 242.783 17.2909L241.918 16.7891C240.929 18.492 240.44 20.41 240.44 22.53H241.44ZM242.78 17.2949C243.696 15.7499 244.922 14.5533 246.463 13.6971L245.977 12.8229C244.278 13.7667 242.924 15.0901 241.92 16.7851L242.78 17.2949ZM246.465 13.6961C248.028 12.8193 249.733 12.38 251.59 12.38V11.38C249.567 11.38 247.693 11.8606 245.975 12.8239L246.465 13.6961ZM251.59 12.38C253.468 12.38 255.172 12.8198 256.713 13.6948L257.207 12.8252C255.508 11.8602 253.632 11.38 251.59 11.38V12.38ZM256.72 13.6983C258.28 14.5545 259.503 15.7496 260.398 17.2909L261.263 16.7891C260.277 15.0904 258.921 13.7655 257.201 12.8217L256.72 13.6983ZM260.398 17.2909C261.289 18.828 261.74 20.57 261.74 22.53H262.74C262.74 20.41 262.251 18.492 261.263 16.7891L260.398 17.2909ZM261.74 22.53C261.74 24.4899 261.289 26.243 260.396 27.8014L261.264 28.2986C262.251 26.577 262.74 24.6501 262.74 22.53H261.74ZM260.398 27.7991C259.503 29.3413 258.278 30.5475 256.715 31.4239L257.205 32.2961C258.922 31.3325 260.277 29.9987 261.263 28.3009L260.398 27.7991ZM256.717 31.4229C255.176 32.2793 253.47 32.71 251.59 32.71V33.71C253.63 33.71 255.504 33.2407 257.203 32.2971L256.717 31.4229ZM251.59 30.74C253.048 30.74 254.365 30.4117 255.529 29.7436L255.031 28.8764C254.035 29.4483 252.892 29.74 251.59 29.74V30.74ZM255.535 29.7401C256.699 29.0504 257.603 28.0794 258.244 26.8397L257.356 26.3803C256.797 27.4606 256.021 28.2896 255.025 28.8799L255.535 29.7401ZM258.243 26.8426C258.906 25.5804 259.23 24.1384 259.23 22.53H258.23C258.23 24.0016 257.934 25.2796 257.357 26.3774L258.243 26.8426ZM259.23 22.53C259.23 20.9219 258.906 19.4883 258.241 18.2443L257.359 18.7157C257.934 19.7917 258.23 21.0581 258.23 22.53H259.23ZM258.244 18.2503C257.602 17.0094 256.696 16.0466 255.529 15.3764L255.031 16.2436C256.024 16.8134 256.798 17.6306 257.356 18.7097L258.244 18.2503ZM255.529 15.3764C254.365 14.7083 253.048 14.38 251.59 14.38V15.38C252.892 15.38 254.035 15.6717 255.031 16.2436L255.529 15.3764ZM251.59 14.38C250.132 14.38 248.815 14.7083 247.651 15.3764L248.149 16.2436C249.145 15.6717 250.288 15.38 251.59 15.38V14.38ZM247.651 15.3764C246.485 16.0457 245.571 17.0065 244.909 18.2443L245.791 18.7157C246.369 17.6335 247.155 16.8143 248.149 16.2436L247.651 15.3764ZM244.906 18.2503C244.263 19.493 243.95 20.9244 243.95 22.53H244.95C244.95 21.0556 245.237 19.787 245.794 18.7097L244.906 18.2503ZM243.95 22.53C243.95 24.1359 244.263 25.5758 244.904 26.8366L245.796 26.3834C245.237 25.2842 244.95 24.0041 244.95 22.53H243.95ZM244.909 26.8457C245.57 28.0823 246.483 29.0513 247.645 29.7401L248.155 28.8799C247.157 28.2887 246.37 27.4577 245.791 26.3743L244.909 26.8457ZM247.651 29.7436C248.815 30.4117 250.132 30.74 251.59 30.74V29.74C250.288 29.74 249.145 29.4483 248.149 28.8764L247.651 29.7436Z" fill="black"/>
</svg>
